<svg width="155" height="156" viewBox="0 0 155 156" fill="none" xmlns="http://www.w3.org/2000/svg">
<mask id="mask0" style="mask-type:alpha" maskUnits="userSpaceOnUse" x="0" y="0" width="179" height="172">
<path d="M81.3683 0.790039L0.000120229 67.0407L96.9192 171.468L178.287 105.217L81.3683 0.790039Z" fill="white"/>
</mask>
<g mask="url(#mask0)">
<path fill-rule="evenodd" clip-rule="evenodd" d="M161.152 113.414C163.722 90.4794 146.881 68.9363 128.515 52.7162C125.451 50.0107 122.595 46.7886 118.755 45.5314C114.914 44.2782 110.265 45.3891 109.21 48.8162C108.333 51.6561 110.07 54.8819 111.127 57.9222C112.533 61.9644 112.75 66.2299 111.745 70.067C111.087 72.589 109.655 75.1322 107 75.7417C103.358 76.5791 99.5477 73.5064 96.6023 70.7145C91.1088 65.5055 85.6171 60.3018 80.1297 55.0945C77.1835 52.3032 74.1663 49.4572 70.5576 47.5993C66.948 45.7405 62.5739 45.0073 59.3422 46.6425C56.1122 48.2795 54.7179 52.7415 57.1007 55.9617C58.0941 57.3028 59.5579 58.2707 60.7171 59.4933C61.8754 60.7149 62.7392 62.4727 62.0674 63.7794C61.3919 65.1023 59.5256 65.3145 57.8911 65.2469C52.2514 65.0213 46.6014 63.1573 41.0926 61.1997C35.5787 59.2398 30.0263 57.149 24.3621 56.4286C18.6952 55.7087 12.7873 56.5241 8.87155 59.8731C4.95496 63.2278 3.65662 69.4918 6.89126 74.3008C10.1373 79.1236 16.4849 81.042 22.1628 81.9779C30.5832 83.3636 39.0521 83.6009 47.2119 82.6749C48.6838 82.5091 50.274 82.3264 51.683 83.056C54.2155 84.3652 54.5558 87.7805 53.5159 90.0341C52.3371 92.5862 50.0297 94.3905 48.3037 96.5938C46.5715 98.7954 45.4241 101.86 46.8506 104.645C48.8274 108.507 54.1926 109.349 58.4314 109.196C66.9144 108.892 75.1387 107.174 82.6307 104.135C85.3155 103.046 87.9997 101.768 91.0534 101.721C94.1088 101.675 97.6891 103.277 98.8533 106.127C100.024 108.982 98.3315 111.908 95.9291 113.434C93.5285 114.963 90.5203 115.523 87.8146 116.589C82.7522 118.579 78.4774 123.275 79.7353 128.772C80.5635 132.387 83.6529 135.534 87.1608 137.387C90.6652 139.242 94.5642 139.985 98.3708 140.467C111.677 142.141 125.076 140.878 136.532 135.985C147.987 131.093 156.453 124.546 161.152 113.414Z" fill="#E8505B"/>
</g>
<mask id="mask1" style="mask-type:alpha" maskUnits="userSpaceOnUse" x="0" y="0" width="179" height="172">
<path d="M81.3683 0.790039L0.000120229 67.0407L96.9192 171.468L178.287 105.217L81.3683 0.790039Z" fill="white"/>
</mask>
<g mask="url(#mask1)">
<path fill-rule="evenodd" clip-rule="evenodd" d="M161.152 113.414C163.722 90.4794 146.881 68.9363 128.515 52.7162C125.451 50.0107 122.595 46.7886 118.755 45.5314C114.914 44.2782 110.265 45.3891 109.21 48.8162C108.333 51.6561 110.07 54.8819 111.127 57.9222C112.533 61.9644 112.75 66.2299 111.745 70.067C111.087 72.589 109.655 75.1322 107 75.7417C103.358 76.5791 99.5477 73.5064 96.6023 70.7145C91.1088 65.5055 85.6171 60.3018 80.1297 55.0945C77.1835 52.3032 74.1663 49.4572 70.5576 47.5993C66.948 45.7405 62.5739 45.0073 59.3422 46.6425C56.1122 48.2795 54.7179 52.7415 57.1007 55.9617C58.0941 57.3028 59.5579 58.2707 60.7171 59.4933C61.8754 60.7149 62.7392 62.4727 62.0674 63.7794C61.3919 65.1023 59.5256 65.3145 57.8911 65.2469C52.2514 65.0213 46.6014 63.1573 41.0926 61.1997C35.5787 59.2398 30.0263 57.149 24.3621 56.4286C18.6952 55.7087 12.7873 56.5241 8.87155 59.8731C4.95496 63.2278 3.65662 69.4918 6.89126 74.3008C10.1373 79.1236 16.4849 81.042 22.1628 81.9779C30.5832 83.3636 39.0521 83.6009 47.2119 82.6749C48.6838 82.5091 50.274 82.3264 51.683 83.056C54.2155 84.3652 54.5558 87.7805 53.5159 90.0341C52.3371 92.5862 50.0297 94.3905 48.3037 96.5938C46.5715 98.7954 45.4241 101.86 46.8506 104.645C48.8274 108.507 54.1926 109.349 58.4314 109.196C66.9144 108.892 75.1387 107.174 82.6307 104.135C85.3155 103.046 87.9997 101.768 91.0534 101.721C94.1088 101.675 97.6891 103.277 98.8533 106.127C100.024 108.982 98.3315 111.908 95.9291 113.434C93.5285 114.963 90.5203 115.523 87.8146 116.589C82.7522 118.579 78.4774 123.275 79.7353 128.772C80.5635 132.387 83.6529 135.534 87.1608 137.387C90.6652 139.242 94.5642 139.985 98.3708 140.467C111.677 142.141 125.076 140.878 136.532 135.985C147.987 131.093 156.453 124.546 161.152 113.414Z" fill="#F8CD99"/>
<mask id="mask2" style="mask-type:alpha" maskUnits="userSpaceOnUse" x="-37" y="-7" width="189" height="187">
<path d="M27.6703 -6.74194L-37 45.9665L86.9596 179.664L151.63 126.956L27.6703 -6.74194Z" fill="white"/>
</mask>
<g mask="url(#mask2)">
<path fill-rule="evenodd" clip-rule="evenodd" d="M4.59772 68.0906C4.60201 68.1034 4.7797 68.112 5.1204 68.1149C5.50165 68.1174 6.00539 68.1163 6.64712 68.1218C7.98667 68.1198 9.96021 68.1166 12.5125 68.1817C17.6118 68.2999 25.0405 68.7136 34.2363 70.2257C38.8321 70.9631 43.8623 71.9728 49.2554 73.1468C54.6477 74.3313 60.4073 75.6291 66.4408 77.2078C72.4718 78.7853 78.7855 80.6185 85.2124 82.986C88.4293 84.1571 91.6451 85.5281 94.9282 86.9242C98.2052 88.3269 101.528 89.7511 104.889 91.1877C118.326 96.986 131.005 102.894 142.158 109.085C153.317 115.257 162.912 121.707 170.49 127.712C178.089 133.705 183.675 139.192 187.349 143.116C189.177 145.088 190.569 146.642 191.475 147.722L192.53 148.937C192.771 149.208 192.9 149.344 192.908 149.34C192.917 149.333 192.81 149.185 192.584 148.899L191.585 147.648C190.711 146.54 189.35 144.959 187.544 142.957C183.923 138.978 178.366 133.419 170.777 127.359C163.208 121.291 153.601 114.77 142.422 108.551C131.25 102.313 118.547 96.3722 105.099 90.5716C101.736 89.1315 98.4095 87.7102 95.1307 86.3089C91.8562 84.9171 88.6094 83.5372 85.3761 82.3648C78.9069 79.9943 72.5683 78.1634 66.52 76.6C60.47 75.0364 54.7001 73.7535 49.2991 72.5924C43.8965 71.4441 38.8533 70.4612 34.2437 69.7465C25.0186 68.2927 17.5707 67.9515 12.4757 67.9164C9.92424 67.8914 7.95324 67.935 6.62312 67.9831L5.10926 68.0473C4.76939 68.0632 4.59601 68.0773 4.59686 68.0897" fill="#263238"/>
</g>
<path fill-rule="evenodd" clip-rule="evenodd" d="M87.3895 81.5964C87.4504 81.5535 87.1145 80.9928 86.4531 80.0163C85.7997 79.035 84.7844 77.6622 83.4911 75.9965C80.9194 72.6594 77.1336 68.2231 72.9271 63.3534C68.7197 58.4829 65.0381 53.985 62.5494 50.5987C61.2949 48.9147 60.3 47.5354 59.6315 46.5663C58.9559 45.6046 58.5494 45.0931 58.4824 45.1361C58.4206 45.1781 58.6999 45.7714 59.2678 46.8108C59.8268 47.854 60.7263 49.3093 61.8996 51.0612C64.2338 54.5783 67.8306 59.1718 72.0415 64.0478C76.2085 68.8348 79.9812 73.1669 82.8616 76.479C84.1446 77.9867 85.2314 79.2562 86.1008 80.2765C86.8735 81.1691 87.3277 81.6434 87.3895 81.5964ZM49.9018 106.973C49.9282 106.997 50.4332 106.612 51.3198 105.895C52.2098 105.184 53.4937 104.147 55.1175 102.907C58.3429 100.407 62.911 97.0758 68.0869 93.5793C73.2734 90.0909 78.079 87.0973 81.6088 85.0126C83.3689 83.9592 84.8094 83.1393 85.8041 82.5675C86.8015 82.0002 87.3444 81.6681 87.3295 81.6353C87.3119 81.603 86.7356 81.8724 85.7083 82.3858C84.6828 82.9011 83.2098 83.6725 81.4207 84.6863C77.8328 86.6951 72.977 89.6496 67.7764 93.1479C62.5846 96.6557 58.0385 100.044 54.8666 102.626C53.2693 103.905 52.0188 104.987 51.1737 105.746C50.3293 106.512 49.8762 106.946 49.9018 106.973ZM145.071 105.538C145.095 105.53 145.013 105.304 144.837 104.884L144.035 103.051C143.329 101.462 142.249 99.1813 140.878 96.3756C138.138 90.7612 134.11 83.0941 129.551 74.6767C124.991 66.2575 120.899 58.6261 118.046 53.0638L114.684 46.4647C114.317 45.7474 114.011 45.1597 113.763 44.6722C113.541 44.2649 113.419 44.0564 113.394 44.0615C113.372 44.0719 113.454 44.2961 113.631 44.7167C113.845 45.2115 114.111 45.8156 114.431 46.5476C115.136 48.1377 116.217 50.4178 117.587 53.2243C120.328 58.8379 124.354 66.5065 128.915 74.9267C133.472 83.3421 137.566 90.972 140.42 96.5379C141.8 99.2488 142.938 101.477 143.779 103.133C144.15 103.85 144.452 104.442 144.705 104.927C144.925 105.333 145.049 105.544 145.072 105.537" fill="#263238"/>
<path fill-rule="evenodd" clip-rule="evenodd" d="M80.8141 132.223C80.8297 132.245 81.0614 132.16 81.4891 131.981L83.3469 131.16C85.0466 130.388 87.3414 129.345 90.13 128.075C95.8619 125.472 103.827 121.97 112.639 118.113C121.455 114.255 129.387 110.674 135.045 107.949C137.876 106.585 140.152 105.461 141.704 104.651C142.416 104.271 143.004 103.961 143.481 103.708C143.884 103.485 144.09 103.353 144.075 103.332C144.059 103.31 143.828 103.394 143.397 103.573C142.9 103.794 142.286 104.067 141.541 104.396L134.757 107.477C129.031 110.083 121.061 113.586 112.245 117.445C103.434 121.3 95.5026 124.881 89.8432 127.604C87.0112 128.967 84.7365 130.093 83.1847 130.902C82.4736 131.283 81.8849 131.593 81.4057 131.847C81.0046 132.071 80.7994 132.198 80.8141 132.223Z" fill="#263238"/>
</g>
</svg>
